# xmcd
#
# Track frame offsets:
#	150
#	18811
#	34824
#	52204
#	69164
#	88483
#	105249
#	123757
#	139679
#	157032
#	173843
#	193098
#
# Disc length: 2792 seconds
#
# Revision: 1
# Processed by: cddbd v1.5.1PL2 Copyright (c) Steve Scherf et al.
# Submitted via: audiograbber 1.83.01
#
DISCID=9d0ae60c
DTITLE=Stevens, Ray - CB20323
DYEAR=1900
DGENRE=Karaoke
TTITLE0=Ahab The Arab w/ Vocal
TTITLE1=Streak, The w/ Vocal
TTITLE2=Along Came Jones w/ Vocal
TTITLE3=Everything Is Beautiful w/ Vocal
TTITLE4=Mississippi Squirrel Revival w/ Vocal
TTITLE5=It's Me Again Margaret w/ Vocal
TTITLE6=Ahab The Arab
TTITLE7=Streak, The
TTITLE8=Along Came Jones
TTITLE9=Eveything Is Beautiful
TTITLE10=Mississippi Squirrel Revival 
TTITLE11=It's Me Again Margaret
EXTD=Not The Original Artist But In The Style Of
EXTT0=
EXTT1=
EXTT2=
EXTT3=
EXTT4=
EXTT5=
EXTT6=
EXTT7=
EXTT8=
EXTT9=
EXTT10=
EXTT11=
PLAYORDER=
